<svg xmlns="http://www.w3.org/2000/svg" viewBox="0 0 500 500"><path fill="#484848" d="M158.2 441.1c-50.5-38.9-65.8-107.9-42.2-193.2 20.8-77.4 87.1-153.8 167.2-194.1l19.9-10.2-3.7 17.6c-6.5 29.6-3.2 71.3 7.9 100.1 5.6 14.8 22.7 43.5 37.5 63.5 32.9 43.5 45.9 70.9 49.1 103.8 4.2 38.5-8.3 69-40.8 101-34.3 34.7-43.5 35.7-31.5 3.7 4.6-13 8.8-31 8.8-40.8 0-21.8-11.1-60.2-20.8-72.7-6.9-9.3-6.9-9.3-12-.5-3.2 5.1-12.5 16.2-20.4 25.5-13.4 14.4-16.2 15.7-23.2 9.7-18.1-14.8-26.4-41.7-24.6-77.4.9-21.3 0-33.4-3.2-32.4-2.3.9-13 14.4-23.6 29.7-39.8 58.4-49.1 111.6-27.3 158 6 13 9.3 24.1 6.9 24.1s-12.9-7.1-24-15.4z"/></svg>