<?xml version="1.0" encoding="utf-8"?>
<!-- Generator: Adobe Illustrator 19.2.1, SVG Export Plug-In . SVG Version: 6.00 Build 0)  -->
<svg version="1.1" id="Layer_1" xmlns="http://www.w3.org/2000/svg" xmlns:xlink="http://www.w3.org/1999/xlink" x="0px" y="0px"
	 viewBox="0 0 500 500" style="enable-background:new 0 0 500 500;" xml:space="preserve">

<g>
	<path fill="#494949" d="M158.2,441.1c-50.5-38.9-65.8-107.9-42.2-193.2c20.8-77.4,87.1-153.8,167.2-194.1l19.9-10.2l-3.7,17.6
		c-6.5,29.6-3.2,71.3,7.9,100.1c5.6,14.8,22.7,43.5,37.5,63.5c32.9,43.5,45.9,70.9,49.1,103.8c4.2,38.5-8.3,69-40.8,101
		c-34.3,34.7-43.5,35.7-31.5,3.7c4.6-13,8.8-31,8.8-40.8c0-21.8-11.1-60.2-20.8-72.7c-6.9-9.3-6.9-9.3-12-0.5
		c-3.2,5.1-12.5,16.2-20.4,25.5c-13.4,14.4-16.2,15.7-23.2,9.7c-18.1-14.8-26.4-41.7-24.6-77.4c0.9-21.3,0-33.4-3.2-32.4
		c-2.3,0.9-13,14.4-23.6,29.7c-39.8,58.4-49.1,111.6-27.3,158c6,13,9.3,24.1,6.9,24.1S169.3,449.4,158.2,441.1z"/>
</g>
</svg>
